<svg xmlns="http://www.w3.org/2000/svg" width="55" height="55" fill="none"><rect width="55" height="55" fill="#7BD1D7" rx="10"/><path fill="#fff" d="M26.704 9.208a15.629 15.629 0 0 1 2.448 0c2.656.256 4.912 1.344 6.768 3.264.256.224.4.352.432.384l1.488-1.824c.896-1.056 1.424-1.664 1.584-1.824.032-.032.208-.048.528-.048.256 0 .432.048.528.144l.144.144v13.584l-.144.144-.144.144H39.28c-.768 0-1.184-.064-1.248-.192-.032-.064-.096-.352-.192-.864-.544-4.352-2.08-7.424-4.608-9.216a7.144 7.144 0 0 0-2.592-1.104c-.672-.128-1.6-.128-2.784 0-2.816.384-5.104 1.456-6.864 3.216-1.568 1.568-2.608 3.616-3.12 6.144-.256 1.312-.384 3.072-.384 5.28 0 2.24.128 4 .384 5.28.704 3.392 2.304 5.904 4.8 7.536 1.792 1.216 3.904 1.872 6.336 1.968 2.464.096 4.256-.592 5.376-2.064.288-.352.496-.72.624-1.104l.096-.384.048-2.4v-2.448l-.096-.096a3.53 3.53 0 0 0-.384-.144c-.384-.096-1.696-.144-3.936-.144h-1.584v-2.688h.576l4.368.096c2.528.032 4.672.032 6.432 0l3.024-.096h.384v2.688H42.64c-1.088.032-1.712.128-1.872.288l-.144.096v9.744l-.144.144c-.16.16-.448.128-.864-.096-1.152-.704-2.016-1.312-2.592-1.824l-.336-.336-.24.288c-.512.672-1.248 1.248-2.208 1.728-2.784 1.472-5.984 1.824-9.6 1.056a16.74 16.74 0 0 1-.528-.096c-2.912-.768-5.456-2.224-7.632-4.368a17.367 17.367 0 0 1-3.216-4.416c-2.24-4.416-2.624-8.96-1.152-13.632.32-.928.704-1.84 1.152-2.736 1.888-3.744 4.736-6.416 8.544-8.016.736-.32 1.504-.576 2.304-.768a16.822 16.822 0 0 1 2.592-.432Z"/></svg>