<svg width="55" height="55" viewBox="0 0 55 55" fill="none" xmlns="http://www.w3.org/2000/svg">
<rect width="55" height="55" rx="10" fill="#7BD1D7"/>
<path d="M26.7043 9.208C27.5363 9.144 28.3523 9.144 29.1523 9.208C31.8083 9.464 34.0643 10.552 35.9203 12.472C36.1763 12.696 36.3203 12.824 36.3523 12.856L37.8403 11.032C38.7363 9.976 39.2643 9.368 39.4243 9.208C39.4563 9.176 39.6323 9.16 39.9523 9.16C40.2083 9.16 40.3843 9.208 40.4803 9.304L40.6243 9.448V16.264V23.032L40.4803 23.176L40.3363 23.32H39.2803C38.5123 23.32 38.0963 23.256 38.0323 23.128C38.0003 23.064 37.9363 22.776 37.8403 22.264C37.2963 17.912 35.7603 14.84 33.2323 13.048C32.4323 12.504 31.5683 12.136 30.6403 11.944C29.9683 11.816 29.0403 11.816 27.8563 11.944C25.0403 12.328 22.7523 13.4 20.9922 15.16C19.4243 16.728 18.3843 18.776 17.8723 21.304C17.6163 22.616 17.4883 24.376 17.4883 26.584C17.4883 28.824 17.6163 30.584 17.8723 31.864C18.5763 35.256 20.1763 37.768 22.6723 39.4C24.4643 40.616 26.5763 41.272 29.0083 41.368C31.4723 41.464 33.2643 40.776 34.3843 39.304C34.6723 38.952 34.8803 38.584 35.0083 38.2L35.1042 37.816L35.1523 35.416V32.968L35.0563 32.872C34.9923 32.84 34.8643 32.792 34.6723 32.728C34.2883 32.632 32.9763 32.584 30.7363 32.584H29.1523V31.24V29.896H29.7283L34.0963 29.992C36.6243 30.024 38.7683 30.024 40.5283 29.992L43.5523 29.896H43.9363V31.24V32.584H42.6403C41.5523 32.616 40.9283 32.712 40.7683 32.872L40.6243 32.968V37.864V42.712L40.4803 42.856C40.3203 43.016 40.0323 42.984 39.6163 42.76C38.4643 42.056 37.6003 41.448 37.0243 40.936L36.6883 40.6L36.4483 40.888C35.9363 41.56 35.2003 42.136 34.2403 42.616C31.4563 44.088 28.2563 44.44 24.6403 43.672C24.4483 43.64 24.2723 43.608 24.1123 43.576C21.2003 42.808 18.6563 41.352 16.4803 39.208C15.1683 37.896 14.0963 36.424 13.2643 34.792C11.0243 30.376 10.6403 25.832 12.1123 21.16C12.4323 20.232 12.8163 19.32 13.2643 18.424C15.1523 14.68 18.0003 12.008 21.8083 10.408C22.5443 10.088 23.3123 9.832 24.1123 9.64C25.0403 9.416 25.9043 9.272 26.7043 9.208Z" fill="white"/>
</svg>
